<svg width="945" height="495" viewBox="0 0 945 495" fill="none" xmlns="http://www.w3.org/2000/svg">
<g clip-path="url(#clip0_626_233)">
<rect width="945" height="495" fill="#F8F8F8"/>
<circle cx="472.93" cy="247.5" r="293.605" fill="#C3DCF4"/>
<circle opacity="0.5" cx="472.93" cy="247.5" r="359.967" fill="#C3DCF4"/>
<rect x="406.226" y="193.064" width="289.238" height="214.959" rx="20.0734" transform="rotate(-6.53748 406.226 193.064)" fill="#824F36"/>
<path d="M620.496 276.692C618.351 257.975 631.785 241.063 650.502 238.918L704.405 232.741C710.372 232.057 715.764 236.34 716.448 242.308L721.739 288.478C722.423 294.445 718.14 299.837 712.172 300.521L658.27 306.698C639.553 308.843 622.641 295.409 620.496 276.692V276.692Z" fill="#663C2B"/>
<circle cx="657.147" cy="271.767" r="21.7316" transform="rotate(-6.53748 657.147 271.767)" fill="#E3E3E3"/>
<g clip-path="url(#clip1_626_233)">
<path d="M563.345 68.0988L254.513 103.491C242.763 104.837 234.331 115.446 235.676 127.184L255.39 299.217C256.736 310.955 267.35 319.381 279.099 318.035L587.932 282.643C599.681 281.297 608.114 270.688 606.768 258.949L587.054 86.9172C585.709 75.1788 575.095 66.7524 563.345 68.0988Z" fill="#3E5FFF"/>
<path d="M586.941 85.9339L235.563 126.201L241.391 177.056L592.769 136.788L586.941 85.9339Z" fill="black"/>
<path d="M346.449 230.584L272.571 239.05C267.65 239.614 264.113 244.06 264.676 248.976C265.24 253.892 269.685 257.424 274.612 256.859L348.484 248.393C353.406 247.829 356.943 243.383 356.379 238.467C355.816 233.551 351.37 230.02 346.443 230.584L346.449 230.584Z" fill="#2E53BC"/>
<path d="M410.523 173.841L274.485 189.431C265.42 190.47 258.909 198.654 259.948 207.713C260.986 216.772 269.174 223.271 278.244 222.232L414.282 206.642C423.347 205.603 429.858 197.42 428.82 188.36C427.782 179.301 419.594 172.802 410.523 173.841Z" fill="#F7F7F7"/>
<path d="M423.613 221.741L374.742 227.341C369.82 227.905 366.284 232.351 366.847 237.267C367.411 242.184 371.856 245.715 376.783 245.15L425.654 239.55C430.575 238.986 434.112 234.54 433.549 229.624C432.985 224.707 428.54 221.176 423.613 221.741Z" fill="#2E53BC"/>
<path d="M525.206 271.654C540.607 269.889 551.667 255.985 549.903 240.595C548.14 225.205 534.226 214.163 518.82 215.929C503.414 217.694 492.364 231.597 494.128 246.987C495.892 262.377 509.805 273.419 525.206 271.654Z" fill="#2E53BB"/>
<path d="M564.913 267.4C580.313 265.635 591.374 251.731 589.61 236.341C587.846 220.952 573.933 209.909 558.526 211.675C543.12 213.44 532.071 227.343 533.835 242.733C535.598 258.123 549.512 269.165 564.913 267.4Z" fill="#2E53BB"/>
</g>
<path d="M96.7575 -27.4498H65.1889C58.338 -27.4498 52.0095 -23.7919 48.5841 -17.8542L32.8008 9.50998C29.3753 15.4477 29.3753 22.7635 32.8008 28.7012L48.5841 56.0654C52.0095 62.0031 58.34 65.661 65.1889 65.661H96.7575C103.608 65.661 109.937 62.0031 113.362 56.0654L129.146 28.7012C132.571 22.7635 132.571 15.4477 129.146 9.50998L113.362 -17.8542C109.937 -23.7919 103.606 -27.4498 96.7575 -27.4498V-27.4498Z" fill="#FF7059"/>
<path d="M939.195 326.178H898.134C889.223 326.178 880.992 330.936 876.536 338.659L856.007 374.252C851.552 381.975 851.552 391.49 856.007 399.213L876.536 434.806C880.992 442.529 889.226 447.287 898.134 447.287H939.195C948.106 447.287 956.337 442.529 960.792 434.806L981.322 399.213C985.777 391.49 985.777 381.975 981.322 374.252L960.792 338.659C956.337 330.936 948.103 326.178 939.195 326.178V326.178Z" fill="#FF7059"/>
<path d="M88.5365 365.584H66.5708C61.8039 365.584 57.4005 368.129 55.0171 372.261L44.0349 391.301C41.6515 395.433 41.6515 400.523 44.0349 404.654L55.0171 423.695C57.4005 427.826 61.8053 430.371 66.5708 430.371H88.5365C93.3034 430.371 97.7068 427.826 100.09 423.695L111.072 404.654C113.456 400.523 113.456 395.433 111.072 391.301L100.09 372.261C97.7068 368.129 93.3021 365.584 88.5365 365.584V365.584Z" fill="#FF7059"/>
<path d="M884.9 65.661H859.864C854.431 65.661 849.412 68.562 846.695 73.2712L834.178 94.9732C831.461 99.6823 831.461 105.484 834.178 110.193L846.695 131.895C849.412 136.604 854.432 139.505 859.864 139.505H884.9C890.334 139.505 895.353 136.604 898.069 131.895L910.587 110.193C913.303 105.484 913.303 99.6823 910.587 94.9732L898.069 73.2712C895.353 68.562 890.332 65.661 884.9 65.661Z" fill="#FF7059"/>
</g>
<defs>
<clipPath id="clip0_626_233">
<rect width="945" height="495" fill="white"/>
</clipPath>
<clipPath id="clip1_626_233">
<rect width="353.678" height="215.943" fill="white" transform="translate(233.24 105.928) rotate(-6.53748)"/>
</clipPath>
</defs>
</svg>
